<svg width="133" height="108" viewBox="0 0 133 108" fill="none" xmlns="http://www.w3.org/2000/svg">
<circle cx="8.59934" cy="11.201" r="3.5" transform="rotate(36.869 8.59934 11.201)" fill="#FF80CC"/>
<circle cx="13.1995" cy="18.401" r="3.5" transform="rotate(36.869 13.1995 18.401)" fill="#FF80CC"/>
<circle cx="20.3995" cy="23.8009" r="3.5" transform="rotate(36.869 20.3995 23.8009)" fill="#FF80CC"/>
<circle cx="28.3996" cy="24.8006" r="3.5" transform="rotate(36.869 28.3996 24.8006)" fill="#FF80CC"/>
<circle cx="48.7997" cy="32.6004" r="3.5" transform="rotate(36.869 48.7997 32.6004)" fill="#FF80CC"/>
<circle cx="55.1997" cy="37.4002" r="3.5" transform="rotate(36.869 55.1997 37.4002)" fill="#FF80CC"/>
<circle cx="60.3998" cy="43.8001" r="3.5" transform="rotate(36.869 60.3998 43.8001)" fill="#FF80CC"/>
<circle cx="64.2" cy="50.4002" r="3.5" transform="rotate(36.869 64.2 50.4002)" fill="#FF80CC"/>
<rect x="34.9557" y="21.8923" width="12" height="7" rx="3.5" transform="rotate(26.1121 34.9557 21.8923)" fill="#FF80CC"/>
<circle cx="67.6001" cy="59.2" r="3.5" transform="rotate(36.869 67.6001 59.2)" fill="#FF80CC"/>
<circle cx="72.2002" cy="66.4" r="3.5" transform="rotate(36.869 72.2002 66.4)" fill="#FF80CC"/>
<circle cx="79.4003" cy="71.7999" r="3.5" transform="rotate(36.869 79.4003 71.7999)" fill="#FF80CC"/>
<circle cx="87.4003" cy="72.7996" r="3.5" transform="rotate(36.869 87.4003 72.7996)" fill="#FF80CC"/>
<circle cx="107.8" cy="80.5994" r="3.5" transform="rotate(36.869 107.8 80.5994)" fill="#FF80CC"/>
<circle cx="114.201" cy="85.3993" r="3.5" transform="rotate(36.869 114.201 85.3993)" fill="#FF80CC"/>
<circle cx="119.401" cy="91.7992" r="3.5" transform="rotate(36.869 119.401 91.7992)" fill="#FF80CC"/>
<circle cx="123.201" cy="98.3993" r="3.5" transform="rotate(36.869 123.201 98.3993)" fill="#FF80CC"/>
<rect x="93.9565" y="69.8914" width="12" height="7" rx="3.5" transform="rotate(26.1121 93.9565 69.8914)" fill="#FF80CC"/>
</svg>
