<svg width="54" height="54" viewBox="0 0 54 54" fill="none" xmlns="http://www.w3.org/2000/svg">
<path d="M27 0L27.7631 12.44L29.8223 0.147909L29.2808 12.5995L32.6136 0.590015L30.7736 12.9168L35.3435 1.32147L32.225 13.3884L37.9819 2.33427L33.6192 14.0091L40.5 3.61731L34.9408 14.7722L42.8702 5.15654L36.1755 15.6692L45.0665 6.93509L37.3096 16.6904L47.0649 8.93347L38.3308 17.8245L48.8435 11.1298L39.2278 19.0592L50.3827 13.5L39.9909 20.3808L51.6657 16.0181L40.6116 21.775L52.6785 18.6565L41.0832 23.2264L53.41 21.3864L41.4005 24.7192L53.8521 24.1777L41.56 26.2369L54 27L41.56 27.7631L53.8521 29.8223L41.4005 29.2808L53.41 32.6136L41.0832 30.7736L52.6785 35.3435L40.6116 32.225L51.6657 37.9819L39.9909 33.6192L50.3827 40.5L39.2278 34.9408L48.8435 42.8702L38.3308 36.1755L47.0649 45.0665L37.3096 37.3096L45.0665 47.0649L36.1755 38.3308L42.8702 48.8435L34.9408 39.2278L40.5 50.3827L33.6192 39.9909L37.9819 51.6657L32.225 40.6116L35.3435 52.6785L30.7736 41.0832L32.6136 53.41L29.2808 41.4005L29.8223 53.8521L27.7631 41.56L27 54L26.2369 41.56L24.1777 53.8521L24.7192 41.4005L21.3864 53.41L23.2264 41.0832L18.6565 52.6785L21.775 40.6116L16.0181 51.6657L20.3808 39.9909L13.5 50.3827L19.0592 39.2278L11.1298 48.8435L17.8245 38.3308L8.93347 47.0649L16.6904 37.3096L6.93509 45.0665L15.6692 36.1755L5.15654 42.8702L14.7722 34.9408L3.61731 40.5L14.0091 33.6192L2.33427 37.9819L13.3884 32.225L1.32147 35.3435L12.9168 30.7736L0.590015 32.6136L12.5995 29.2808L0.147909 29.8223L12.44 27.7631L0 27L12.44 26.2369L0.147909 24.1777L12.5995 24.7192L0.590015 21.3864L12.9168 23.2264L1.32147 18.6565L13.3884 21.775L2.33427 16.0181L14.0091 20.3808L3.61731 13.5L14.7722 19.0592L5.15654 11.1298L15.6692 17.8245L6.93509 8.93347L16.6904 16.6904L8.93347 6.93509L17.8245 15.6692L11.1298 5.15654L19.0592 14.7722L13.5 3.61731L20.3808 14.0091L16.0181 2.33427L21.775 13.3884L18.6565 1.32147L23.2264 12.9168L21.3864 0.590015L24.7192 12.5995L24.1777 0.147909L26.2369 12.44L27 0Z" fill="white"/>
</svg>
