<svg width="473" height="381" viewBox="0 0 473 381" fill="none" xmlns="http://www.w3.org/2000/svg">
<circle cx="30.6617" cy="38.2886" r="12.4512" transform="rotate(36.869 30.6617 38.2886)" fill="#FF80CC"/>
<circle cx="47.0264" cy="63.9019" r="12.4512" transform="rotate(36.869 47.0264 63.9019)" fill="#FF80CC"/>
<circle cx="72.6412" cy="83.1114" r="12.4512" transform="rotate(36.869 72.6412 83.1114)" fill="#FF80CC"/>
<circle cx="101.101" cy="86.669" r="12.4512" transform="rotate(36.869 101.101 86.669)" fill="#FF80CC"/>
<circle cx="173.675" cy="114.417" r="12.4512" transform="rotate(36.869 173.675 114.417)" fill="#FF80CC"/>
<circle cx="196.442" cy="131.492" r="12.4512" transform="rotate(36.869 196.442 131.492)" fill="#FF80CC"/>
<circle cx="214.942" cy="154.26" r="12.4512" transform="rotate(36.869 214.942 154.26)" fill="#FF80CC"/>
<circle cx="228.46" cy="177.739" r="12.4512" transform="rotate(36.869 228.46 177.739)" fill="#FF80CC"/>
<rect x="124.424" y="76.3228" width="42.6899" height="24.9025" rx="12.4512" transform="rotate(26.1121 124.424 76.3228)" fill="#FF80CC"/>
<circle cx="240.557" cy="209.045" r="12.4512" transform="rotate(36.869 240.557 209.045)" fill="#FF80CC"/>
<circle cx="256.922" cy="234.658" r="12.4512" transform="rotate(36.869 256.922 234.658)" fill="#FF80CC"/>
<circle cx="282.536" cy="253.868" r="12.4512" transform="rotate(36.869 282.536 253.868)" fill="#FF80CC"/>
<circle cx="310.996" cy="257.425" r="12.4512" transform="rotate(36.869 310.996 257.425)" fill="#FF80CC"/>
<circle cx="383.569" cy="285.173" r="12.4512" transform="rotate(36.869 383.569 285.173)" fill="#FF80CC"/>
<circle cx="406.337" cy="302.249" r="12.4512" transform="rotate(36.869 406.337 302.249)" fill="#FF80CC"/>
<circle cx="424.837" cy="325.016" r="12.4512" transform="rotate(36.869 424.837 325.016)" fill="#FF80CC"/>
<circle cx="438.355" cy="348.496" r="12.4512" transform="rotate(36.869 438.355 348.496)" fill="#FF80CC"/>
<rect x="334.319" y="247.08" width="42.6899" height="24.9025" rx="12.4512" transform="rotate(26.1121 334.319 247.08)" fill="#FF80CC"/>
</svg>
