<svg width="139" height="138" viewBox="0 0 139 138" fill="none" xmlns="http://www.w3.org/2000/svg">
<path d="M69.5 0L72.1771 18.2856L76.7647 0.377991L77.5019 18.8412L83.9499 1.50781L82.7391 19.9464L90.9767 3.3771L87.8312 21.5891L97.7682 5.96536L92.7225 23.7511L104.25 9.24425L97.3594 26.409L110.351 13.1778L101.691 29.5334L116.005 17.723L105.67 33.0903L121.149 22.83L109.253 37.0406L125.727 28.4428L112.4 41.341L129.689 34.5L115.077 45.9445L132.991 40.9352L117.255 50.8006L135.598 47.6778L118.909 55.8561L137.481 54.6541L120.022 61.0556L138.619 61.7875L120.582 66.3422L139 69L120.582 71.6578L138.619 76.2125L120.022 76.9444L137.481 83.3459L118.909 82.1439L135.598 90.3222L117.255 87.1994L132.991 97.0648L115.077 92.0555L129.689 103.5L112.4 96.659L125.727 109.557L109.253 100.959L121.149 115.17L105.67 104.91L116.005 120.277L101.691 108.467L110.351 124.822L97.3594 111.591L104.25 128.756L92.7225 114.249L97.7682 132.035L87.8312 116.411L90.9767 134.623L82.7391 118.054L83.9499 136.492L77.5019 119.159L76.7647 137.622L72.1771 119.714L69.5 138L66.8229 119.714L62.2353 137.622L61.4981 119.159L55.0501 136.492L56.2609 118.054L48.0233 134.623L51.1688 116.411L41.2318 132.035L46.2775 114.249L34.75 128.756L41.6406 111.591L28.6489 124.822L37.309 108.467L22.9954 120.277L33.3301 104.91L17.8514 115.17L29.7474 100.959L13.2733 109.557L26.6003 96.659L9.31123 103.5L23.9232 92.0555L6.00859 97.0648L21.7455 87.1994L3.40157 90.3222L20.091 82.1439L1.51875 83.3459L18.9778 76.9444L0.38073 76.2125L18.4181 71.6578L0 69L18.4181 66.3422L0.38073 61.7875L18.9778 61.0556L1.51875 54.6541L20.091 55.8561L3.40157 47.6778L21.7455 50.8006L6.00859 40.9352L23.9232 45.9445L9.31123 34.5L26.6003 41.341L13.2733 28.4428L29.7474 37.0406L17.8514 22.83L33.3301 33.0903L22.9954 17.723L37.309 29.5334L28.6489 13.1778L41.6406 26.409L34.75 9.24425L46.2775 23.7511L41.2318 5.96536L51.1688 21.5891L48.0233 3.3771L56.2609 19.9464L55.0501 1.50781L61.4981 18.8412L62.2353 0.377991L66.8229 18.2856L69.5 0Z" fill="white"/>
</svg>
