<svg width="380" height="381" viewBox="0 0 380 381" fill="none" xmlns="http://www.w3.org/2000/svg">
<path d="M190 0L194.01 139.413L219.723 2.34537L201.931 140.671L248.713 9.32373L209.559 143.156L276.258 20.7633L216.705 146.807L301.679 36.3823L223.193 151.533L324.35 55.7962L228.864 157.219L343.713 78.5269L233.578 163.725L359.291 104.015L237.219 170.89L370.701 131.632L239.698 178.537L377.661 160.699L240.952 186.479L380 190.5L240.952 194.521L377.661 220.301L239.698 202.463L370.701 249.368L237.219 210.11L359.291 276.985L233.578 217.275L343.713 302.473L228.864 223.781L324.35 325.204L223.193 229.467L301.679 344.618L216.705 234.193L276.258 360.237L209.559 237.844L248.713 371.676L201.931 240.329L219.723 378.655L194.01 241.587L190 381L185.99 241.587L160.277 378.655L178.069 240.329L131.287 371.676L170.441 237.844L103.742 360.237L163.295 234.193L78.3208 344.618L156.807 229.467L55.6497 325.204L151.136 223.781L36.2868 302.473L146.422 217.275L20.7088 276.985L142.781 210.11L9.29926 249.368L140.302 202.463L2.33922 220.301L139.048 194.521L0 190.5L139.048 186.479L2.33922 160.699L140.302 178.537L9.29926 131.632L142.781 170.89L20.7088 104.015L146.422 163.725L36.2868 78.5269L151.136 157.219L55.6497 55.7962L156.807 151.533L78.3208 36.3823L163.295 146.807L103.742 20.7633L170.441 143.156L131.287 9.32373L178.069 140.671L160.277 2.34537L185.99 139.413L190 0Z" fill="#FF8F8F"/>
</svg>
