<svg width="39" height="39" viewBox="0 0 39 39" fill="none" xmlns="http://www.w3.org/2000/svg">
<path d="M19.5 0L20.2511 5.16767L21.5383 0.106823L21.7451 5.3247L23.5543 0.426123L23.2146 5.63703L25.5258 0.954397L24.6433 6.10125L27.4314 1.68586L26.0157 6.71227L29.25 2.6125L27.3167 7.4634L30.9618 3.72417L28.532 8.3464L32.548 5.00868L29.6484 9.3516L33.9913 6.45195L30.6536 10.468L35.2758 8.03819L31.5366 11.6833L36.3875 9.75L32.2877 12.9843L37.3141 11.5686L32.8987 14.3567L38.0456 13.4742L33.363 15.7854L38.5739 15.4457L33.6753 17.2549L38.8932 17.4617L33.8323 18.7489L39 19.5L33.8323 20.2511L38.8932 21.5383L33.6753 21.7451L38.5739 23.5543L33.363 23.2146L38.0456 25.5258L32.8987 24.6433L37.3141 27.4314L32.2877 26.0157L36.3875 29.25L31.5366 27.3167L35.2758 30.9618L30.6536 28.532L33.9913 32.548L29.6484 29.6484L32.548 33.9913L28.532 30.6536L30.9618 35.2758L27.3167 31.5366L29.25 36.3875L26.0157 32.2877L27.4314 37.3141L24.6433 32.8987L25.5258 38.0456L23.2146 33.363L23.5543 38.5739L21.7451 33.6753L21.5383 38.8932L20.2511 33.8323L19.5 39L18.7489 33.8323L17.4617 38.8932L17.2549 33.6753L15.4457 38.5739L15.7854 33.363L13.4742 38.0456L14.3567 32.8987L11.5686 37.3141L12.9843 32.2877L9.75 36.3875L11.6833 31.5366L8.03819 35.2758L10.468 30.6536L6.45195 33.9913L9.3516 29.6484L5.00868 32.548L8.3464 28.532L3.72417 30.9618L7.4634 27.3167L2.6125 29.25L6.71227 26.0157L1.68586 27.4314L6.10125 24.6433L0.954397 25.5258L5.63703 23.2146L0.426123 23.5543L5.3247 21.7451L0.106823 21.5383L5.16767 20.2511L0 19.5L5.16767 18.7489L0.106823 17.4617L5.3247 17.2549L0.426123 15.4457L5.63703 15.7854L0.954397 13.4742L6.10125 14.3567L1.68586 11.5686L6.71227 12.9843L2.6125 9.75L7.4634 11.6833L3.72417 8.03819L8.3464 10.468L5.00868 6.45195L9.3516 9.3516L6.45195 5.00868L10.468 8.3464L8.03819 3.72417L11.6833 7.4634L9.75 2.6125L12.9843 6.71227L11.5686 1.68586L14.3567 6.10125L13.4742 0.954397L15.7854 5.63703L15.4457 0.426123L17.2549 5.3247L17.4617 0.106823L18.7489 5.16767L19.5 0Z" fill="white"/>
</svg>
