<svg width="107" height="107" viewBox="0 0 107 107" fill="none" xmlns="http://www.w3.org/2000/svg">
<path d="M53.5 0L54.6291 39.1529L61.8692 0.658672L56.8596 39.5061L70.0324 2.61848L59.0074 40.204L77.7885 5.83115L61.0195 41.2292L84.9465 10.2176L62.8465 42.5566L91.3302 15.6698L64.4434 44.1535L96.7824 22.0535L65.7708 45.9805L101.169 29.2115L66.796 47.9926L104.382 36.9676L67.4939 50.1404L106.341 45.1308L67.8471 52.3709L107 53.5L67.8471 54.6291L106.341 61.8692L67.4939 56.8596L104.382 70.0324L66.796 59.0074L101.169 77.7885L65.7708 61.0195L96.7824 84.9465L64.4434 62.8465L91.3302 91.3302L62.8465 64.4434L84.9465 96.7824L61.0195 65.7708L77.7885 101.169L59.0074 66.796L70.0324 104.382L56.8596 67.4939L61.8692 106.341L54.6291 67.8471L53.5 107L52.3709 67.8471L45.1308 106.341L50.1404 67.4939L36.9676 104.382L47.9926 66.796L29.2115 101.169L45.9805 65.7708L22.0535 96.7824L44.1535 64.4434L15.6698 91.3302L42.5566 62.8465L10.2176 84.9465L41.2292 61.0195L5.83115 77.7885L40.204 59.0074L2.61848 70.0324L39.5061 56.8596L0.658672 61.8692L39.1529 54.6291L0 53.5L39.1529 52.3709L0.658672 45.1308L39.5061 50.1404L2.61848 36.9676L40.204 47.9926L5.83115 29.2115L41.2292 45.9805L10.2176 22.0535L42.5566 44.1535L15.6698 15.6698L44.1535 42.5566L22.0535 10.2176L45.9805 41.2292L29.2115 5.83115L47.9926 40.204L36.9676 2.61848L50.1404 39.5061L45.1308 0.658672L52.3709 39.1529L53.5 0Z" fill="#FF8F8F"/>
</svg>
