<svg width="15" height="15" viewBox="0 0 15 15" fill="none" xmlns="http://www.w3.org/2000/svg">
<path d="M7.5 0L7.71196 3.45555L8.28396 0.0410857L8.13356 3.49986L9.05934 0.163893L8.54822 3.588L9.81763 0.367076L8.95139 3.719L10.5505 0.648409L9.33866 3.89142L11.25 1.00481L9.70579 4.10338L11.9084 1.43237L10.0487 4.35256L12.5185 1.92641L10.3638 4.63622L13.0736 2.48152L10.6474 4.95125L13.5676 3.09161L10.8966 5.29421L13.9952 3.75L11.1086 5.66134L14.3516 4.44948L11.281 6.04861L14.6329 5.18237L11.412 6.45178L14.8361 5.94066L11.5001 6.86644L14.9589 6.71604L11.5444 7.28804L15 7.5L11.5444 7.71196L14.9589 8.28396L11.5001 8.13356L14.8361 9.05934L11.412 8.54822L14.6329 9.81763L11.281 8.95139L14.3516 10.5505L11.1086 9.33866L13.9952 11.25L10.8966 9.70579L13.5676 11.9084L10.6474 10.0487L13.0736 12.5185L10.3638 10.3638L12.5185 13.0736L10.0487 10.6474L11.9084 13.5676L9.70579 10.8966L11.25 13.9952L9.33866 11.1086L10.5505 14.3516L8.95139 11.281L9.81763 14.6329L8.54822 11.412L9.05934 14.8361L8.13356 11.5001L8.28396 14.9589L7.71196 11.5444L7.5 15L7.28804 11.5444L6.71604 14.9589L6.86644 11.5001L5.94066 14.8361L6.45178 11.412L5.18237 14.6329L6.04861 11.281L4.44948 14.3516L5.66134 11.1086L3.75 13.9952L5.29421 10.8966L3.09161 13.5676L4.95125 10.6474L2.48152 13.0736L4.63622 10.3638L1.92641 12.5185L4.35256 10.0487L1.43237 11.9084L4.10338 9.70579L1.00481 11.25L3.89142 9.33866L0.648409 10.5505L3.719 8.95139L0.367076 9.81763L3.588 8.54822L0.163893 9.05934L3.49986 8.13356L0.0410857 8.28396L3.45555 7.71196L0 7.5L3.45555 7.28804L0.0410857 6.71604L3.49986 6.86644L0.163893 5.94066L3.588 6.45178L0.367076 5.18237L3.719 6.04861L0.648409 4.44948L3.89142 5.66134L1.00481 3.75L4.10338 5.29421L1.43237 3.09161L4.35256 4.95125L1.92641 2.48152L4.63622 4.63622L2.48152 1.92641L4.95125 4.35256L3.09161 1.43237L5.29421 4.10338L3.75 1.00481L5.66134 3.89142L4.44948 0.648409L6.04861 3.719L5.18237 0.367076L6.45178 3.588L5.94066 0.163893L6.86644 3.49986L6.71604 0.0410857L7.28804 3.45555L7.5 0Z" fill="white"/>
</svg>
